<svg xmlns="http://www.w3.org/2000/svg" width="1120" height="760" viewBox="0 0 1120 760" role="img" aria-labelledby="title desc">
  <title id="title">SWE-bench Pro performance context</title>
  <desc id="desc">Horizontal bar chart comparing the OCO Qwen3.6 pilot with public SWE-bench Pro scores from Scale Labs.</desc>
  <style>
    .title{font:700 22px ui-monospace,SFMono-Regular,Menlo,Consolas,monospace;fill:#222}
    .subtitle{font:13px -apple-system,BlinkMacSystemFont,Segoe UI,sans-serif;fill:#666}
    .label{font:13px ui-monospace,SFMono-Regular,Menlo,Consolas,monospace;fill:#222}
    .score{font:13px ui-monospace,SFMono-Regular,Menlo,Consolas,monospace;fill:#222;text-anchor:end}
    .badge{font:700 12px ui-monospace,SFMono-Regular,Menlo,Consolas,monospace;fill:#fff;text-anchor:middle;dominant-baseline:middle}
    .note{font:12px -apple-system,BlinkMacSystemFont,Segoe UI,sans-serif;fill:#666}
    .track{fill:#ededed}
    .ci{stroke:#111;stroke-width:2}
  </style>
  <rect width="1120" height="760" fill="#fff"/>
  <text x="34" y="42" class="title">PERFORMANCE CONTEXT</text>
  <text x="34" y="66" class="subtitle">OCO pilot is a seeded-subset submitted-row result, not a public leaderboard submission.</text>
  <g transform="translate(44,92)">
    <line x1="250" y1="622" x2="930" y2="622" stroke="#aaa" stroke-width="1"/>
    <text x="250" y="646" class="note" text-anchor="middle">0</text>
    <text x="420" y="646" class="note" text-anchor="middle">20</text>
    <text x="590" y="646" class="note" text-anchor="middle">40</text>
    <text x="760" y="646" class="note" text-anchor="middle">60</text>
    <text x="930" y="646" class="note" text-anchor="middle">80</text>
    <text x="590" y="690" class="note" text-anchor="middle">Strict pass rate (%) with reported uncertainty</text>
    <g transform="translate(0,0)">
      <rect x="0" y="0" width="28" height="24" fill="#222"/><text x="14" y="12" class="badge">P</text><text x="42" y="17" class="label">OCO / Qwen3.6-27B pilot</text><text x="1020" y="17" class="score">72.6 [66.4, 78.1]</text><rect x="250" y="27" width="680" height="7" class="track"/><rect x="250" y="27" width="617" height="7" fill="#63C3BA"/><line x1="814" y1="30.5" x2="914" y2="30.5" class="ci"/><line x1="814" y1="23" x2="814" y2="38" class="ci"/><line x1="914" y1="23" x2="914" y2="38" class="ci"/>
    </g>
    <g transform="translate(0,37)">
      <rect x="0" y="0" width="28" height="24" fill="#222"/><text x="14" y="12" class="badge">1</text><text x="42" y="17" class="label">gpt-5.4 (xHigh)*</text><text x="1020" y="17" class="score">59.10 ±3.56</text><rect x="250" y="27" width="680" height="7" class="track"/><rect x="250" y="27" width="502" height="7" fill="#63C3BA"/><line x1="722" y1="30.5" x2="783" y2="30.5" class="ci"/><line x1="722" y1="23" x2="722" y2="38" class="ci"/><line x1="783" y1="23" x2="783" y2="38" class="ci"/>
    </g>
    <g transform="translate(0,74)">
      <rect x="0" y="0" width="28" height="24" fill="#222"/><text x="14" y="12" class="badge">2</text><text x="42" y="17" class="label">Muse Spark* NEW</text><text x="1020" y="17" class="score">55.00 ±3.60</text><rect x="250" y="27" width="680" height="7" class="track"/><rect x="250" y="27" width="468" height="7" fill="#6EC7E8"/><line x1="687" y1="30.5" x2="748" y2="30.5" class="ci"/><line x1="687" y1="23" x2="687" y2="38" class="ci"/><line x1="748" y1="23" x2="748" y2="38" class="ci"/>
    </g>
    <g transform="translate(0,111)">
      <rect x="0" y="0" width="28" height="24" fill="#222"/><text x="14" y="12" class="badge">3</text><text x="42" y="17" class="label">claude-opus-4-6 (thinking)*</text><text x="1020" y="17" class="score">51.90 ±3.61</text><rect x="250" y="27" width="680" height="7" class="track"/><rect x="250" y="27" width="441" height="7" fill="#E97755"/><line x1="661" y1="30.5" x2="722" y2="30.5" class="ci"/><line x1="661" y1="23" x2="661" y2="38" class="ci"/><line x1="722" y1="23" x2="722" y2="38" class="ci"/>
    </g>
    <g transform="translate(0,148)">
      <rect x="0" y="0" width="28" height="24" fill="#222"/><text x="14" y="12" class="badge">4</text><text x="42" y="17" class="label">gemini-3.1-pro (thinking)*</text><text x="1020" y="17" class="score">46.10 ±3.60</text><rect x="250" y="27" width="680" height="7" class="track"/><rect x="250" y="27" width="392" height="7" fill="#5F8FD3"/><line x1="611" y1="30.5" x2="672" y2="30.5" class="ci"/><line x1="611" y1="23" x2="611" y2="38" class="ci"/><line x1="672" y1="23" x2="672" y2="38" class="ci"/>
    </g>
    <g transform="translate(0,185)">
      <rect x="0" y="0" width="28" height="24" fill="#222"/><text x="14" y="12" class="badge">5</text><text x="42" y="17" class="label">claude-opus-4-5-20251101</text><text x="1020" y="17" class="score">45.89 ±3.60</text><rect x="250" y="27" width="680" height="7" class="track"/><rect x="250" y="27" width="390" height="7" fill="#E97755"/><line x1="609" y1="30.5" x2="671" y2="30.5" class="ci"/><line x1="609" y1="23" x2="609" y2="38" class="ci"/><line x1="671" y1="23" x2="671" y2="38" class="ci"/>
    </g>
    <g transform="translate(0,222)">
      <rect x="0" y="0" width="28" height="24" fill="#222"/><text x="14" y="12" class="badge">6</text><text x="42" y="17" class="label">claude-4-5-Sonnet</text><text x="1020" y="17" class="score">43.60 ±3.60</text><rect x="250" y="27" width="680" height="7" class="track"/><rect x="250" y="27" width="371" height="7" fill="#E97755"/><line x1="590" y1="30.5" x2="651" y2="30.5" class="ci"/><line x1="590" y1="23" x2="590" y2="38" class="ci"/><line x1="651" y1="23" x2="651" y2="38" class="ci"/>
    </g>
    <g transform="translate(0,259)">
      <rect x="0" y="0" width="28" height="24" fill="#222"/><text x="14" y="12" class="badge">7</text><text x="42" y="17" class="label">gemini-3-pro-preview</text><text x="1020" y="17" class="score">43.30 ±3.60</text><rect x="250" y="27" width="680" height="7" class="track"/><rect x="250" y="27" width="368" height="7" fill="#5F8FD3"/><line x1="587" y1="30.5" x2="649" y2="30.5" class="ci"/><line x1="587" y1="23" x2="587" y2="38" class="ci"/><line x1="649" y1="23" x2="649" y2="38" class="ci"/>
    </g>
    <g transform="translate(0,296)">
      <rect x="0" y="0" width="28" height="24" fill="#222"/><text x="14" y="12" class="badge">8</text><text x="42" y="17" class="label">claude-4-Sonnet</text><text x="1020" y="17" class="score">42.70 ±3.59</text><rect x="250" y="27" width="680" height="7" class="track"/><rect x="250" y="27" width="363" height="7" fill="#E97755"/><line x1="582" y1="30.5" x2="644" y2="30.5" class="ci"/><line x1="582" y1="23" x2="582" y2="38" class="ci"/><line x1="644" y1="23" x2="644" y2="38" class="ci"/>
    </g>
    <g transform="translate(0,333)">
      <rect x="0" y="0" width="28" height="24" fill="#222"/><text x="14" y="12" class="badge">9</text><text x="42" y="17" class="label">gpt-5-2025-08-07 (High)</text><text x="1020" y="17" class="score">41.78 ±3.49</text><rect x="250" y="27" width="680" height="7" class="track"/><rect x="250" y="27" width="355" height="7" fill="#63C3BA"/><line x1="575" y1="30.5" x2="635" y2="30.5" class="ci"/><line x1="575" y1="23" x2="575" y2="38" class="ci"/><line x1="635" y1="23" x2="635" y2="38" class="ci"/>
    </g>
    <g transform="translate(0,370)">
      <rect x="0" y="0" width="28" height="24" fill="#222"/><text x="14" y="12" class="badge">10</text><text x="42" y="17" class="label">gpt-5.2-codex</text><text x="1020" y="17" class="score">41.04 ±3.57</text><rect x="250" y="27" width="680" height="7" class="track"/><rect x="250" y="27" width="349" height="7" fill="#63C3BA"/><line x1="568" y1="30.5" x2="629" y2="30.5" class="ci"/><line x1="568" y1="23" x2="568" y2="38" class="ci"/><line x1="629" y1="23" x2="629" y2="38" class="ci"/>
    </g>
    <g transform="translate(0,407)">
      <rect x="0" y="0" width="28" height="24" fill="#222"/><text x="14" y="12" class="badge">11</text><text x="42" y="17" class="label">claude-4-5-haiku</text><text x="1020" y="17" class="score">39.45 ±3.55</text><rect x="250" y="27" width="680" height="7" class="track"/><rect x="250" y="27" width="335" height="7" fill="#E97755"/><line x1="555" y1="30.5" x2="616" y2="30.5" class="ci"/><line x1="555" y1="23" x2="555" y2="38" class="ci"/><line x1="616" y1="23" x2="616" y2="38" class="ci"/>
    </g>
    <g transform="translate(0,444)">
      <rect x="0" y="0" width="28" height="24" fill="#222"/><text x="14" y="12" class="badge">12</text><text x="42" y="17" class="label">qwen3-coder-480b-a35b</text><text x="1020" y="17" class="score">38.70 ±3.55</text><rect x="250" y="27" width="680" height="7" class="track"/><rect x="250" y="27" width="329" height="7" fill="#D86BB0"/><line x1="549" y1="30.5" x2="609" y2="30.5" class="ci"/><line x1="549" y1="23" x2="549" y2="38" class="ci"/><line x1="609" y1="23" x2="609" y2="38" class="ci"/>
    </g>
    <g transform="translate(0,481)">
      <rect x="0" y="0" width="28" height="24" fill="#222"/><text x="14" y="12" class="badge">13</text><text x="42" y="17" class="label">minimax-2.1</text><text x="1020" y="17" class="score">36.81 ±3.55</text><rect x="250" y="27" width="680" height="7" class="track"/><rect x="250" y="27" width="313" height="7" fill="#8C9098"/><line x1="533" y1="30.5" x2="593" y2="30.5" class="ci"/><line x1="533" y1="23" x2="533" y2="38" class="ci"/><line x1="593" y1="23" x2="593" y2="38" class="ci"/>
    </g>
    <g transform="translate(0,518)">
      <rect x="0" y="0" width="28" height="24" fill="#222"/><text x="14" y="12" class="badge">14</text><text x="42" y="17" class="label">gemini-3-flash</text><text x="1020" y="17" class="score">34.63 ±3.55</text><rect x="250" y="27" width="680" height="7" class="track"/><rect x="250" y="27" width="294" height="7" fill="#5F8FD3"/><line x1="514" y1="30.5" x2="575" y2="30.5" class="ci"/><line x1="514" y1="23" x2="514" y2="38" class="ci"/><line x1="575" y1="23" x2="575" y2="38" class="ci"/>
    </g>
    <g transform="translate(0,555)">
      <rect x="0" y="0" width="28" height="24" fill="#222"/><text x="14" y="12" class="badge">15</text><text x="42" y="17" class="label">gpt-5.2</text><text x="1020" y="17" class="score">29.94 ±2.15</text><rect x="250" y="27" width="680" height="7" class="track"/><rect x="250" y="27" width="254" height="7" fill="#63C3BA"/><line x1="486" y1="30.5" x2="523" y2="30.5" class="ci"/><line x1="486" y1="23" x2="486" y2="38" class="ci"/><line x1="523" y1="23" x2="523" y2="38" class="ci"/>
    </g>
    <g transform="translate(0,592)">
      <rect x="0" y="0" width="28" height="24" fill="#222"/><text x="14" y="12" class="badge">16</text><text x="42" y="17" class="label">kimi-k2-instruct</text><text x="1020" y="17" class="score">27.67 ±3.25</text><rect x="250" y="27" width="680" height="7" class="track"/><rect x="250" y="27" width="235" height="7" fill="#8C9098"/><line x1="458" y1="30.5" x2="513" y2="30.5" class="ci"/><line x1="458" y1="23" x2="458" y2="38" class="ci"/><line x1="513" y1="23" x2="513" y2="38" class="ci"/>
    </g>
  </g>
</svg>
